<?xml version="1.0" standalone="no"?>
<!DOCTYPE svg PUBLIC "-//W3C//DTD SVG 20010904//EN"
 "http://www.w3.org/TR/2001/REC-SVG-20010904/DTD/svg10.dtd">
<svg version="1.0" xmlns="http://www.w3.org/2000/svg"
 width="529.000000pt" height="120.000000pt" viewBox="0 0 529.000000 120.000000"
 preserveAspectRatio="xMidYMid meet">
<metadata>
Created by potrace 1.15, written by Peter Selinger 2001-2017
</metadata>
<g transform="translate(0.000000,120.000000) scale(0.100000,-0.100000)"
fill="#1F7EAD" stroke="none">
<path d="M446 1048 c-23 -22 -71 -124 -83 -178 -3 -14 -14 -36 -23 -50 -10
-14 -30 -59 -45 -100 -15 -41 -40 -111 -56 -155 -66 -179 -63 -165 -41 -194
26 -35 65 -48 96 -32 26 15 38 36 67 126 11 33 36 92 55 131 19 40 34 76 34
82 0 5 14 40 31 78 16 38 36 83 44 99 21 49 45 124 45 145 0 25 -49 70 -77 70
-12 0 -33 -10 -47 -22z"/>
<path d="M4773 1060 c-24 -10 -44 -43 -62 -105 -13 -43 -13 -42 -67 -160 -20
-44 -46 -109 -59 -145 -13 -36 -35 -96 -50 -135 -48 -128 -48 -121 -9 -155 38
-33 59 -37 90 -16 23 16 29 30 109 236 31 80 64 165 75 190 74 175 90 215 90
228 0 21 -56 72 -77 71 -10 0 -28 -4 -40 -9z"/>
<path d="M3459 1036 c-2 -2 -3 -158 -1 -345 l3 -341 209 0 210 0 0 71 c0 64
-2 70 -17 63 -10 -4 -73 -10 -140 -12 l-123 -4 0 81 0 80 98 3 97 3 0 59 0 59
-98 -2 -98 -2 3 78 3 78 105 0 c58 -1 120 -5 138 -9 l32 -8 0 76 0 76 -208 0
c-115 0 -211 -2 -213 -4z"/>
<path d="M668 1008 c-8 -13 -22 -43 -32 -68 -10 -25 -27 -64 -37 -87 -11 -24
-19 -47 -19 -52 0 -4 -14 -42 -31 -82 -62 -147 -77 -185 -104 -267 -31 -93
-27 -124 21 -142 60 -23 96 11 135 130 12 36 26 70 31 77 5 6 13 24 18 40 5
15 31 82 59 148 28 66 51 123 51 127 0 4 11 32 25 62 30 66 31 76 4 110 -28
35 -99 38 -121 4z"/>
<path d="M947 1024 c-3 -3 -1 -18 4 -33 9 -26 8 -574 -2 -616 -4 -19 2 -20
188 -23 l192 -2 25 37 26 38 0 265 c0 359 14 340 -245 340 -100 0 -184 -3
-188 -6z m308 -334 l0 -215 -85 0 -85 0 -3 209 c-2 161 1 211 10 218 7 4 47 7
88 6 l75 -3 0 -215z"/>
<path d="M1605 1020 c-3 -5 -4 -18 -1 -28 4 -10 -8 -83 -25 -163 -16 -79 -41
-196 -54 -259 -13 -63 -31 -134 -39 -157 -19 -55 -8 -65 76 -61 l63 3 3 40 c1
22 5 59 8 83 l5 42 69 0 69 0 5 -43 c3 -23 7 -60 8 -82 l3 -40 70 0 c82 0 80
-7 46 140 -52 232 -84 393 -90 459 l-6 71 -102 3 c-63 2 -104 -1 -108 -8z"/>
<path d="M2040 1023 c0 -5 -2 -150 -3 -323 -1 -173 -6 -323 -11 -333 -8 -17
-3 -18 70 -15 65 2 78 6 74 18 -3 8 -6 85 -8 170 -4 187 -2 187 88 -15 35 -77
70 -148 78 -157 18 -22 104 -25 120 -5 8 9 12 121 12 338 l2 324 -72 3 -72 3
7 -33 c12 -53 17 -199 10 -258 -9 -69 -12 -66 -100 128 -37 81 -73 150 -79
154 -15 10 -116 10 -116 1z"/>
<path d="M2535 1020 c-3 -4 0 -21 6 -38 12 -35 7 -574 -5 -610 -8 -23 -8 -23
63 -20 l72 3 0 335 0 335 -66 2 c-36 0 -67 -2 -70 -7z"/>
<path d="M2758 1025 c-3 -3 0 -28 7 -55 7 -27 16 -73 20 -102 4 -29 14 -80 22
-113 48 -196 73 -341 63 -369 -5 -16 -10 -31 -10 -33 0 -2 37 -3 82 -1 l83 3
-3 42 c-5 58 28 243 43 243 15 0 45 -157 45 -232 l0 -58 81 0 81 0 -8 33 c-9
41 -10 31 20 182 37 182 74 372 81 423 l7 43 -69 -3 c-63 -3 -68 -4 -65 -25 4
-28 -36 -235 -47 -246 -5 -5 -11 -5 -14 0 -4 7 -34 187 -39 243 -3 24 -6 25
-68 25 l-65 0 -7 -50 c-4 -27 -10 -59 -12 -70 -3 -11 -13 -51 -21 -90 -9 -38
-18 -71 -20 -73 -6 -6 -26 76 -44 183 l-17 100 -60 3 c-33 2 -63 0 -66 -3z"/>
<path d="M3969 1026 c-2 -2 -1 -62 2 -133 3 -70 3 -220 0 -331 -3 -112 -4
-206 -2 -208 2 -2 87 -4 187 -4 l183 0 25 33 c25 32 26 40 26 156 0 110 -2
126 -22 154 l-22 30 22 15 c20 13 22 22 22 124 0 108 0 110 -29 139 l-29 29
-180 0 c-98 0 -181 -2 -183 -4z m296 -166 c0 -45 0 -45 -58 -73 -33 -16 -71
-29 -85 -30 -27 -2 -27 -2 -24 63 4 95 1 91 89 88 l78 -3 0 -45z m-11 -219
c13 -15 16 -34 14 -92 l-3 -74 -82 -3 -83 -3 0 70 c0 75 0 76 65 103 52 22 68
22 89 -1z"/>
<path d="M4988 1013 c-17 -19 -60 -125 -77 -187 -5 -21 -17 -46 -25 -55 -9
-10 -24 -42 -35 -72 -11 -30 -30 -83 -44 -119 -82 -213 -84 -230 -34 -260 17
-11 39 -20 47 -20 19 1 70 45 70 62 0 7 21 63 46 123 25 61 49 121 52 135 3
14 14 41 25 60 11 19 28 58 38 85 9 28 29 81 43 119 32 85 32 97 3 124 -29 27
-87 30 -109 5z"/>
</g>
</svg>
